<svg version="1.1" xmlns="http://www.w3.org/2000/svg" viewBox="0 0 729.205078125 594.4921875">
  <!-- svg-source:excalidraw -->
  <defs>
    <style>
      @font-face {
        font-family: "Virgil";
        src: url("https://excalidraw.com/FG_Virgil.woff2");
      }
      @font-face {
        font-family: "Cascadia";
        src: url("https://excalidraw.com/Cascadia.woff2");
      }
    </style>
  </defs>
  <rect x="0" y="0" width="729.205078125" height="594.4921875" fill="#ffffff"></rect><g transform="translate(10 189.6484375) rotate(0 145.349609375 105.474609375)"><path d="M-0.915308431145273 -0.8621045822307378 C113.42338019143097 -0.2408764533468346, 224.59895300080527 1.325270466374953, 290.363153513456 -0.2767432670782072 M-0.6509332055225129 -0.19626050534606984 C84.49887622806015 2.110354770165673, 168.2346460732682 1.3460752054514264, 290.7688740160888 0.23287494965688826 M291.18592328919345 1.064760164367182 C291.4738611894121 66.69461460192812, 293.1194824021057 137.89725944187194, 290.8571993042888 211.68076758731104 M291.1786017993865 0.3386625676080821 C290.87899208526585 78.49140248950458, 290.54667702838975 158.43992351288634, 290.57053214655883 211.74437609522877 M291.8328180112852 211.8630433539214 C209.95410165245562 210.09076641935232, 127.34622386584515 208.8666704622128, 1.0755267465560423 212.1389388129773 M290.982621456622 210.56844433382872 C217.11087915803182 211.96948995918282, 143.75248055824545 211.60318565629726, -0.367353319213922 211.43685905914438 M-0.8804271238621417 210.94071623805536 C-0.17219927888341235 154.0458585497684, 1.572430200330231 102.05517938548678, -0.48504132314709947 1.6286434976111566 M-0.06614813498533227 211.5163512761506 C1.3510374321823853 126.0538749917731, 1.6870180837879882 43.26223044816117, 0.7864804037820914 0.6938217403334245" stroke="#000000" stroke-width="1" fill="none"></path></g><g transform="translate(108.60546875 259.234375) rotate(0 46.5 38.5)"><text x="0" y="54" font-family="Virgil, Segoe UI Emoji" font-size="61.24479166666665px" fill="#000000" text-anchor="start" style="white-space: pre;" direction="ltr">Elm</text></g><g transform="translate(428.505859375 190.158203125) rotate(0 145.349609375 105.474609375)"><path d="M-1.2581970424473128 -1.039492230492585 C101.04529865982359 0.45550308395310296, 198.61532642550617 -0.3686923761075236, 289.5916286979278 -0.40629139016093063 M0.7467059992966705 0.1749373120819956 C94.20001915229095 1.6341731988531099, 188.78823563383452 0.9896752587424803, 290.46926124406997 -0.11882736148456577 M289.84593851155313 -1.6062738074088645 C290.0809696258359 59.422070482359125, 292.8340061701685 117.33986133999841, 288.96814177696103 209.3377296108458 M291.33517127602596 -0.03290580168754962 C291.2188292532458 74.65359566833678, 291.5973784814609 150.14932053263314, 290.0560881990165 210.1274279603996 M291.4620734739295 211.8908389378465 C201.43923529501322 207.80713943799256, 110.54427697347455 207.8525904503367, -1.1446661839616525 211.96229383706716 M290.01452930082183 210.68659654243376 C208.5679405469612 212.19375974268092, 126.28755640025898 213.24702793719027, 0.5500453786632157 211.36189931771 M-0.2684731430758875 209.29571412133458 C1.6541808678743402 160.07593269714056, 0.9819134852959198 110.2456810203016, -1.2961344082790285 1.4198195880130304 M0.19055974737616807 211.3156626450084 C-1.6469899661709066 129.08926427265814, -1.3109487713937669 48.9466710498514, 0.44407324167138607 -0.6106025430221681" stroke="#000000" stroke-width="1" fill="none"></path></g><g transform="translate(537.23828125 258.671875) rotate(0 35 38.5)"><text x="0" y="54" font-family="Virgil, Segoe UI Emoji" font-size="61.24479166666665px" fill="#000000" text-anchor="start" style="white-space: pre;" direction="ltr">UI</text></g><g><g transform="translate(155.61328125 163.59375) rotate(0 199.85010043233632 -57.67465949515348)"><path d="M-1.0143470183014869 -1.1449204310774803 C32.9629831418395 -20.42214047362407, 137.9316806420684 -114.9486746336023, 204.88649645894765 -116.21771138757467 C271.8413122758269 -117.48674814154704, 368.1153030499816 -26.304521213471887, 400.71454788297416 -8.75914095491171 M0.6539820677507668 0.8683923972677441 C34.44908458565362 -18.229346122539912, 137.74263356332665 -113.2202125748961, 204.33003351126797 -115.1206588335801 C270.9174334592093 -117.0211050922641, 367.42733885739926 -27.98406135340221, 400.17838175539856 -10.534285154836253" stroke="#000000" stroke-width="1" fill="none"></path></g><g transform="translate(155.61328125 163.59375) rotate(0 199.85010043233632 -57.67465949515348)"><path d="M369.259890730428 -16.933355293459798 C380.9098195822526 -14.258735142240422, 395.2840425155462 -11.702527670121032, 398.3357382783759 -8.77756451507099 M371.0240525816851 -19.076633262671137 C378.41899455501425 -16.575173345016076, 384.01897555151317 -15.177884268037204, 400.26454377491956 -11.407440856741742" stroke="#000000" stroke-width="1" fill="none"></path></g><g transform="translate(155.61328125 163.59375) rotate(0 199.85010043233632 -57.67465949515348)"><path d="M380.9593139067069 -33.7928778171907 C388.02462259774916 -24.722701278048795, 397.8921151184428 -15.672043459550991, 398.3357382783759 -8.77756451507099 M382.72347575796397 -35.93615578640204 C387.518047967361 -29.617053814443462, 390.3908921877703 -24.289808259353734, 400.26454377491956 -11.407440856741742" stroke="#000000" stroke-width="1" fill="none"></path></g></g><g transform="translate(330.43359375 10) rotate(0 27.5 12.5)"><text x="0" y="18" font-family="Virgil, Segoe UI Emoji" font-size="20px" fill="#000000" text-anchor="start" style="white-space: pre;" direction="ltr">HTML</text></g><g><g transform="translate(572.1015625 431.03515625) rotate(0 -198.84392999244386 55.08551705802796)"><path d="M0.30308309644460674 -0.275851522386074 C-30.788580884039405 18.289229867359005, -121.06309627443552 109.39028359800577, -187.31946209818125 110.30755869299173 C-253.575827921927 111.2248337879777, -362.35286253839735 22.60925798167785, -397.2351118460298 5.227799047529698 M-0.9969370072614402 -1.4662775169778617 C-32.21681617881171 17.363315913084275, -122.32697935934178 110.29989208768122, -188.4926470383536 111.63731163303368 C-254.6583147173654 112.97473117838614, -363.40145741487856 24.51597535670114, -397.9909430813324 6.558239755136892" stroke="#000000" stroke-width="1" fill="none"></path></g><g transform="translate(572.1015625 431.03515625) rotate(0 -198.84392999244386 55.08551705802796)"><path d="M-369.189879022185 12.462016535681876 C-376.2316237680281 11.720820915896836, -382.4331714117191 11.196592138461103, -396.6314762678277 5.380794440312311 M-368.13153153250016 13.953691111636552 C-376.8860488966469 12.009409301484478, -384.4020946436733 10.301324060544175, -398.5448376719188 7.512457557870075" stroke="#000000" stroke-width="1" fill="none"></path></g><g transform="translate(572.1015625 431.03515625) rotate(0 -198.84392999244386 55.08551705802796)"><path d="M-380.2899028508334 29.72207080527432 C-384.5576474547563 24.88159330425271, -388.1409568269531 20.28611789218537, -396.6314762678277 5.380794440312311 M-379.2315553611486 31.213745381228996 C-384.96230723576394 24.56913530935273, -389.40519588861395 18.082424450729746, -398.5448376719188 7.512457557870075" stroke="#000000" stroke-width="1" fill="none"></path></g></g><g transform="translate(341.0078125 559.4921875) rotate(0 40 12.5)"><text x="0" y="18" font-family="Virgil, Segoe UI Emoji" font-size="20px" fill="#000000" text-anchor="start" style="white-space: pre;" direction="ltr">Message</text></g></svg>