<svg version="1.1" xmlns="http://www.w3.org/2000/svg" viewBox="0 0 1379.29296875 402.744140625">
  <!-- svg-source:excalidraw -->
  <defs>
    <style>
      @font-face {
        font-family: "Virgil";
        src: url("https://excalidraw.com/FG_Virgil.woff2");
      }
      @font-face {
        font-family: "Cascadia";
        src: url("https://excalidraw.com/Cascadia.woff2");
      }
    </style>
  </defs>
  <rect x="0" y="0" width="1379.29296875" height="402.744140625" fill="#ffffff"></rect><g transform="translate(371.126953125 227.583984375) rotate(0 133.224609375 82.580078125)"><path d="M-0.9647166123689315 -0.9086408294488542 C104.02572687108831 -0.3323209983670249, 205.68231012993846 1.3183662448123614, 266.0950127736298 -0.2916818178737228 M-0.6860704605598247 -0.20685461142575737 C77.46142132031765 2.0690062163762573, 154.1185439152089 1.2634709809459754, 266.5226339945758 0.24544549672450475 M267.0012107864022 1.2075891718268394 C267.0365538887105 51.70359604013356, 268.9029219440541 108.51993829662388, 266.6283911243081 165.98983647674322 M266.9929071776569 0.38409142568707466 C266.7124348079592 61.25945844476374, 266.3355423604876 124.17149614865485, 266.30326987430453 166.06197755411267 M267.64400949148 166.1233089384237 C192.59381370754204 164.38432891845423, 116.77509649569721 163.09415648607694, 1.1335834830576845 166.41409718375357 M266.7479194827426 164.758827700687 C198.9443624891478 166.1732288213865, 131.68185939305874 165.78715147942017, -0.38718298400366236 165.67411929358704 M-0.9985293373465538 165.1505131945014 C-0.4741435726250347 120.05211387854797, 1.5045139114295307 80.51574916952814, -0.5501057133078575 1.8471129164099693 M-0.07502137497067451 165.8033650405705 C1.2716334906134579 98.46528855205251, 1.6526832428488705 34.15631438897398, 0.8919804207980633 0.7868923433125019" stroke="#000000" stroke-width="1" fill="none"></path></g><g transform="translate(423.681640625 294.037109375) rotate(0 75.5 17.5)"><text x="0" y="25" font-family="Virgil, Segoe UI Emoji" font-size="28px" fill="#000000" text-anchor="start" style="white-space: pre;" direction="ltr">Dispatcher</text></g><g transform="translate(737.578125 226.9921875) rotate(0 133.224609375 82.580078125)"><path d="M1.3187699702061195 0.1470049758535828 C100.36015600200683 -0.5727953908517698, 200.4830717894325 -2.0419872985770793, 267.88164402107594 -0.2306728253615163 M0.5053760916285089 0.32909098413337456 C70.98129085823592 -1.6933634693555342, 142.19241452248892 -2.101345154748442, 265.92847492173263 -0.2816506230068421 M267.0301094278693 0.1739114299416542 C264.9905296500346 37.3512411583055, 264.744351261439 76.84922670942325, 265.2127168402076 165.97646865993738 M266.26617388799787 0.24146629497408867 C265.4035987669679 51.611100382350564, 265.2577804142686 102.14798224194384, 266.1943194158375 164.91439689323306 M267.3672685605225 164.2608982703684 C160.0217780556704 164.38549260699597, 56.723159358510024 162.8762112593286, 0.401870987508534 164.9344453056992 M265.67246754336696 164.69739630970352 C202.63504862141704 162.90360891099684, 138.05170249870991 164.31115861953106, -0.3865000138632079 165.49468037158834 M0.9900622591376305 164.45546708256006 C-0.25962398941090203 106.05091515212989, 0.8347890526575794 47.59250732570362, -1.5399310365319252 1.9889355674386024 M0.8356245048344135 165.59062911197543 C-1.0722699709034351 116.69144249866513, 0.07291967200275384 67.34597826694662, -0.6210184805095196 0.8169273249804974" stroke="#000000" stroke-width="1" fill="none"></path></g><g transform="translate(830.08203125 294.1796875) rotate(0 39 17.5)"><text x="0" y="25" font-family="Virgil, Segoe UI Emoji" font-size="28px" fill="#000000" text-anchor="start" style="white-space: pre;" direction="ltr">Store</text></g><g transform="translate(1102.84375 226.29296875) rotate(0 133.224609375 82.580078125)"><path d="M-0.4900094810327503 1.1475463118556992 C88.69947141977154 -0.19408790930685388, 176.9395045647359 -1.2412610133961797, 265.00031286475934 0.2251202038536971 M0.5952133931869594 -0.6680917504011904 C93.71074978667485 -0.5933119110326657, 187.8262070105467 -0.2146100279945501, 266.3520424727223 0.306451890223357 M265.7562898173928 -0.37250588089227676 C264.82543577791495 42.785094113221575, 266.46311273218436 85.65194551114402, 265.76770935207605 164.02000906318426 M266.7032373063266 -0.2702675573527813 C265.3852128196733 49.545058121236806, 265.31669668445755 97.38033085182835, 267.09107268974185 166.0916815288365 M267.09697179497505 164.09195077146444 C196.55954216798187 165.09950680608225, 124.71543644437348 167.54967671180077, 0.018688323126029954 164.40059200409203 M266.00681813965303 164.65878690202453 C205.36983443588184 164.11307488639898, 143.79961517468524 163.54494223332304, -0.10595844924383636 164.56239817577418 M-1.1557580456137657 163.5635364279151 C0.9911919878951447 127.9994469863901, 1.2631310271254914 90.33943316742369, 1.7428227439522743 -0.20332667976617813 M-0.1300949938595295 165.34470765665174 C1.7995561514662404 105.51607442667445, 2.1928396378325123 46.09825738932412, -0.22404824569821358 0.9671319015324116" stroke="#000000" stroke-width="1" fill="none"></path></g><g transform="translate(1206.4765625 290.78515625) rotate(0 29 17.5)"><text x="0" y="25" font-family="Virgil, Segoe UI Emoji" font-size="28px" fill="#000000" text-anchor="start" style="white-space: pre;" direction="ltr">View</text></g><g transform="translate(735.59765625 10) rotate(0 133.224609375 82.580078125)"><path d="M-0.26401269818407047 0.11015440048104745 C58.65384412236564 -1.274379732243537, 113.77978063207343 -0.19651936010604987, 266.21682190852675 1.4730073828118593 M-0.021678696734360795 0.0486322762949408 C104.83869678919608 1.233586772394186, 208.59351474688384 0.5351794334349123, 267.09047831593267 -0.4067883413551662 M264.8267142996192 0.08767566829919815 C265.37111954399313 42.63813578843401, 266.83402471252646 84.23508180944773, 266.4881348833442 163.6808289065957 M265.4607841260731 -0.7277315743267536 C267.2341138299492 45.28798915868829, 267.0398450072792 88.24671449985763, 265.5052969940007 165.11307240650058 M267.80799706152334 164.5479544736445 C207.23817041241318 163.24533184532217, 148.59169154527493 165.05343659975043, 1.3782914685820806 165.72155976937592 M266.57346508026933 164.60980405587287 C170.6338667293109 166.99396408813175, 74.37195421863815 166.33554382797317, -0.19858330434699578 165.16837892554042 M-1.800262190401554 164.70396337658167 C-1.3672764684252614 98.92137032008468, 0.8585834120221263 34.57637644571659, 1.915647529065609 -1.7781244739890099 M-0.14346368238329887 166.02474392578006 C1.854012815949245 114.49821678358857, 1.563789098259731 64.29335635892639, 0.10537200048565865 0.4118354432284832" stroke="#000000" stroke-width="1" fill="none"></path></g><g transform="translate(823.8125 77.1015625) rotate(0 41.5 17.5)"><text x="0" y="25" font-family="Virgil, Segoe UI Emoji" font-size="28px" fill="#000000" text-anchor="start" style="white-space: pre;" direction="ltr">Action</text></g><g><g transform="translate(652.919921875 308.837890625) rotate(0 34.144539848738304 0.4396650437032861)"><path d="M0.27228003591299066 0.8296135559678077 C11.840554104745387 0.9456537062923113, 57.71501484960317 1.2741229032476744, 69.33299137204885 1.3773014202713967 M-1.043911674572155 0.21955672751180844 C10.36219475721009 -0.08841117004243021, 56.56432760481723 -0.3598701593248794, 68.3198249724973 -0.49797133286483586" stroke="#000000" stroke-width="1" fill="none"></path></g><g transform="translate(652.919921875 308.837890625) rotate(0 34.144539848738304 0.4396650437032861)"><path d="M41.602642095325976 9.80230205085489 C49.19587256199124 7.732137309413777, 57.565311212066895 3.5476077121402785, 69.14463549976237 -2.0690097205806524 M40.47295516976574 10.684718332704035 C49.04937171420923 6.484751006420746, 58.20273258922795 4.13338634517144, 68.25286873926409 -0.5423057333100587" stroke="#000000" stroke-width="1" fill="none"></path></g><g transform="translate(652.919921875 308.837890625) rotate(0 34.144539848738304 0.4396650437032861)"><path d="M41.42298972758839 -10.718120152711139 C49.18543207440155 -6.763645261307729, 57.60761885977347 -4.923127594460544, 69.14463549976237 -2.0690097205806524 M40.29330280202815 -9.835703870861993 C49.06861802543319 -7.462571261878191, 58.279521433200095 -3.2412584709716077, 68.25286873926409 -0.5423057333100587" stroke="#000000" stroke-width="1" fill="none"></path></g></g><g><g transform="translate(1018.6328125 307.955078125) rotate(0 34.71110631799786 0.698803954003381)"><path d="M0.7907954826951027 0.48874517530202866 C12.402812398970127 0.5157742286721865, 58.31207281500101 0.2591706221302351, 69.67538825422525 0.41720095723867423 M-0.2531756182294338 -0.30026755300350483 C11.219638655902818 -0.13397737341312066, 57.47484100204893 1.7523276119710256, 68.84198021781631 1.6978754610102622" stroke="#000000" stroke-width="1" fill="none"></path></g><g transform="translate(1018.6328125 307.955078125) rotate(0 34.71110631799786 0.698803954003381)"><path d="M41.25493180657298 11.723468824025797 C48.13300780662302 7.460657164123759, 58.360817734124595 7.234155117204195, 69.45513782543131 3.428752644388005 M40.5804716674474 10.858093092885422 C48.38704885355152 8.391748342204933, 54.374634187996314 6.982196276541937, 69.13876391467639 1.74370659369044" stroke="#000000" stroke-width="1" fill="none"></path></g><g transform="translate(1018.6328125 307.955078125) rotate(0 34.71110631799786 0.698803954003381)"><path d="M41.689250930935415 -8.793143208277503 C48.48051458998688 -6.892489686017257, 58.57790982174325 -0.9583886974544891, 69.45513782543131 3.428752644388005 M41.01479079180983 -9.658518939417878 C48.776366959340585 -6.818267346538166, 54.651626101400375 -2.9216913120123156, 69.13876391467639 1.74370659369044" stroke="#000000" stroke-width="1" fill="none"></path></g></g><g><g transform="translate(1243.068359375 200.662109375) rotate(0 -95.37591564975821 -61.95804922366115)"><path d="M0.3051509991288186 1.143878947198391 C-0.017638908326625735 -18.14852508455515, 32.24223948866129 -94.81558553924164, -2.0841835364699364 -114.62817644029856 C-36.41060656160116 -134.4407673413555, -171.82748139947654 -117.4891393398245, -205.65338715165854 -117.73166645914316 M-0.9937834556680173 0.6988114491384478 C-0.9058855252247304 -18.430969372959808, 34.004087366880846 -96.83665600287107, 0.3026176120061428 -116.40993835148402 C-33.398852142868556 -135.98322070009695, -168.99983125614932 -116.45907079296497, -203.20260198491624 -116.74088264253922" stroke="#000000" stroke-width="1" fill="none"></path></g><g transform="translate(1243.068359375 200.662109375) rotate(0 -95.37591564975821 -61.95804922366115)"><path d="M-173.84853376201153 -129.88216481829807 C-182.4564369942591 -126.70419286774015, -192.47256702389384 -122.19731358482375, -201.49254224526695 -118.44719003138133 M-175.12298844135165 -129.08399124542996 C-182.7848735605069 -125.1109140417356, -188.37603844811576 -122.65953566901135, -202.8713244840782 -117.64463968944736" stroke="#000000" stroke-width="1" fill="none"></path></g><g transform="translate(1243.068359375 200.662109375) rotate(0 -95.37591564975821 -61.95804922366115)"><path d="M-172.48650628990654 -109.40620614596548 C-181.67845754172652 -112.11597000266671, -192.08646057103064 -113.50029006070909, -201.49254224526695 -118.44719003138133 M-173.76096096924667 -108.60803257309738 C-181.56367753586656 -109.58638411255339, -187.48418292738043 -112.08612653966277, -202.8713244840782 -117.64463968944736" stroke="#000000" stroke-width="1" fill="none"></path></g></g><g><g transform="translate(703.267578125 78.146484375) rotate(0 -103.76247783410366 59.872319382931565)"><path d="M-1.1230308428406715 -1.0218147620558737 C-32.20120961417755 -1.2378536726037659, -152.71719585011402 -24.32181835422913, -186.62272294908763 -2.1508816584944723 C-220.52825004806124 20.020055037240184, -201.61968845278025 109.91778438637654, -204.55619343668224 132.00380541235208 M0.48823923532851055 1.0561285425256939 C-30.66629960164738 0.6033611708910516, -152.87639527475153 -25.23724503010201, -187.16146749223583 -3.708723965482786 C-221.44653970972013 17.819797099136437, -202.4607595124375 107.74666367074164, -205.22219406957737 130.22725493024103" stroke="#000000" stroke-width="1" fill="none"></path></g><g transform="translate(703.267578125 78.146484375) rotate(0 -103.76247783410366 59.872319382931565)"><path d="M-218.28040943762 103.75866220902986 C-211.72118557383112 110.8569051852829, -208.45611686859812 119.35581470237315, -206.15642199064604 130.11127702455036 M-217.15903182422454 101.77743842091746 C-212.30556976500796 112.42870819624902, -207.70989202129545 122.65858783590055, -204.50356799880973 131.026316955043" stroke="#000000" stroke-width="1" fill="none"></path></g><g transform="translate(703.267578125 78.146484375) rotate(0 -103.76247783410366 59.872319382931565)"><path d="M-197.7748983599595 102.95615499424463 C-197.110486800599 110.09297199909554, -199.73451488860476 118.82235822302054, -206.15642199064604 130.11127702455036 M-196.65352074656406 100.97493120613223 C-199.6292131080379 111.9369804835988, -202.85691524800882 122.47303726640388, -204.50356799880973 131.026316955043" stroke="#000000" stroke-width="1" fill="none"></path></g></g><g transform="translate(10 224.484375) rotate(0 133.224609375 82.580078125)"><path d="M0.7797245925726487 -1.2247527319192142 C69.69406376386395 1.3682364279118069, 143.6256704051992 1.9926026981079523, 264.88888805831857 0.9375584516485767 M0.2981938192963157 0.38437863683420304 C80.74875856214742 -1.0601738317288445, 161.27062386118263 -1.0175747562673674, 267.12792722298815 -0.016248475819260443 M265.7787409797311 -0.6324486508965492 C264.92630860724324 53.2786101560967, 264.92782375731343 107.12377388252354, 264.70198760181665 164.56540229171515 M266.3677109591663 -0.46257133409380913 C267.16098987529915 38.967178631977006, 267.85653852890175 76.04468326723728, 265.8250844590366 165.57379715517163 M265.17191830758725 165.33583000134482 C164.20245845592072 164.0575920977655, 62.20821304839096 162.10102455031665, -0.05397171696644537 164.3056657814649 M266.8302135126078 165.8368062397303 C178.15559725296225 167.2907344983421, 89.77097311734329 167.62832031940297, -0.10697669798710763 165.92036538932675 M-1.0959075912833214 164.60481741279364 C2.106154335571191 101.30651667537894, 0.37327922685231896 38.590270076147846, -1.8914567455649376 1.4914348348975182 M-0.2254098542034626 164.4010839946568 C0.2167888904928985 107.80239900300948, -0.8516929124474701 48.89077532117662, 0.8226847760379314 -0.18317587301135063" stroke="#000000" stroke-width="1" fill="none"></path></g><g transform="translate(98.21484375 291.5859375) rotate(0 41.5 17.5)"><text x="0" y="25" font-family="Virgil, Segoe UI Emoji" font-size="28px" fill="#000000" text-anchor="start" style="white-space: pre;" direction="ltr">Action</text></g><g><g transform="translate(287.33984375 305.580078125) rotate(0 34.47141407579181 0.47199086631647447)"><path d="M-1.0686561003327368 0.5013808384537697 C10.684455309808257 0.5007232959071796, 58.30784031003714 -0.04807648907105119, 70.01148425191641 0.10710550695657739 M0.5711607176531106 -0.28099816669709976 C12.259144094930964 -0.1569300458797564, 58.07838643197902 1.2837757673890637, 69.35452661429532 1.2249798993300645" stroke="#000000" stroke-width="1" fill="none"></path></g><g transform="translate(287.33984375 305.580078125) rotate(0 34.47141407579181 0.47199086631647447)"><path d="M41.84219454769993 11.967050638380192 C46.97181982125864 8.258607116259974, 56.48701861366278 5.737019863560166, 69.28501546149143 1.852122902376577 M40.97546650637889 10.137768030496977 C49.97188694471217 7.911121387477847, 60.95557341971134 3.74651522205349, 69.99211075295695 2.0489372345339505" stroke="#000000" stroke-width="1" fill="none"></path></g><g transform="translate(287.33984375 305.580078125) rotate(0 34.47141407579181 0.47199086631647447)"><path d="M42.16348146575694 -8.55164271919316 C47.22928843932512 -6.974569215818244, 56.66168046059334 -4.207778232815099, 69.28501546149143 1.852122902376577 M41.2967534244359 -10.380925327076374 C50.326807341341826 -5.610301810353601, 61.200936582783044 -2.778136074592683, 69.99211075295695 2.0489372345339505" stroke="#000000" stroke-width="1" fill="none"></path></g></g></svg>